# MagicaVoxel @ Ephtracy

# group
g door_open

# material
mtllib door_open.mtl
usemtl palette

# normals
vn -1 0 0
vn 1 0 0
vn 0 0 1
vn 0 0 -1
vn 0 -1 0
vn 0 1 0

# texcoords
vt 0.537109 0.5
vt 0.994141 0.5

# verts
v -10 0 10
v -10 0 -0
v -10 1 9
v -10 1 1
v -10 14 8
v -10 14 7
v -10 15 8
v -10 15 7
v -10 23 2
v -10 23 1
v -10 23 -0
v -10 25 3
v -10 25 2
v -10 25 1
v -10 26 4
v -10 26 3
v -10 26 2
v -10 27 5
v -10 27 4
v -10 27 3
v -10 28 7
v -10 28 5
v -10 28 4
v -10 29 9
v -10 29 7
v -10 29 5
v -10 30 10
v -10 30 7
v -9 23 1
v -9 23 -0
v -9 25 1
v -9 25 -0
v -8 25 1
v -8 25 -0
v -8 26 1
v -8 26 -0
v -7 26 1
v -7 26 -0
v -7 27 1
v -7 27 -0
v -6 27 1
v -6 27 -0
v -6 28 1
v -6 28 -0
v -5 28 1
v -5 28 -0
v -5 29 1
v -5 29 -0
v -3 29 1
v -3 29 -0
v -3 30 1
v -3 30 -0
v 9 0 10
v 9 0 1
v 9 1 9
v 9 1 1
v 9 14 8
v 9 14 7
v 9 15 8
v 9 15 7
v 9 23 2
v 9 23 1
v 9 25 3
v 9 25 2
v 9 25 1
v 9 26 4
v 9 26 3
v 9 26 2
v 9 27 5
v 9 27 4
v 9 27 3
v 9 28 7
v 9 28 5
v 9 28 4
v 9 29 9
v 9 29 7
v 9 29 5
v 9 30 10
v 9 30 7
v -9 0 10
v -9 0 1
v -9 1 9
v -9 1 1
v -9 14 8
v -9 14 7
v -9 15 8
v -9 15 7
v -9 23 2
v -9 23 1
v -9 25 3
v -9 25 2
v -9 25 1
v -9 26 4
v -9 26 3
v -9 26 2
v -9 27 5
v -9 27 4
v -9 27 3
v -9 28 7
v -9 28 5
v -9 28 4
v -9 29 9
v -9 29 7
v -9 29 5
v -9 30 10
v -9 30 7
v 3 29 1
v 3 29 -0
v 3 30 1
v 3 30 -0
v 5 28 1
v 5 28 -0
v 5 29 1
v 5 29 -0
v 6 27 1
v 6 27 -0
v 6 28 1
v 6 28 -0
v 7 26 1
v 7 26 -0
v 7 27 1
v 7 27 -0
v 8 25 1
v 8 25 -0
v 8 26 1
v 8 26 -0
v 9 23 1
v 9 23 -0
v 9 25 1
v 9 25 -0
v 10 0 10
v 10 0 -0
v 10 1 9
v 10 1 1
v 10 14 8
v 10 14 7
v 10 15 8
v 10 15 7
v 10 23 2
v 10 23 1
v 10 23 -0
v 10 25 3
v 10 25 2
v 10 25 1
v 10 26 4
v 10 26 3
v 10 26 2
v 10 27 5
v 10 27 4
v 10 27 3
v 10 28 7
v 10 28 5
v 10 28 4
v 10 29 9
v 10 29 7
v 10 29 5
v 10 30 10
v 10 30 7
v -10 0 10
v -10 30 10
v -9 0 10
v -9 30 10
v 9 0 10
v 9 30 10
v 10 0 10
v 10 30 10
v -9 0 1
v -9 1 1
v -9 23 1
v -9 25 1
v -8 25 1
v -8 26 1
v -7 26 1
v -7 27 1
v -6 27 1
v -6 28 1
v -5 28 1
v -5 29 1
v -3 29 1
v -3 30 1
v 3 29 1
v 3 30 1
v 5 28 1
v 5 29 1
v 6 27 1
v 6 28 1
v 7 26 1
v 7 27 1
v 8 25 1
v 8 26 1
v 9 0 1
v 9 1 1
v 9 23 1
v 9 25 1
v -10 29 7
v -10 30 7
v -9 29 7
v -9 30 7
v 9 29 7
v 9 30 7
v 10 29 7
v 10 30 7
v -10 28 5
v -10 29 5
v -9 28 5
v -9 29 5
v 9 28 5
v 9 29 5
v 10 28 5
v 10 29 5
v -10 27 4
v -10 28 4
v -9 27 4
v -9 28 4
v 9 27 4
v 9 28 4
v 10 27 4
v 10 28 4
v -10 26 3
v -10 27 3
v -9 26 3
v -9 27 3
v 9 26 3
v 9 27 3
v 10 26 3
v 10 27 3
v -10 25 2
v -10 26 2
v -9 25 2
v -9 26 2
v 9 25 2
v 9 26 2
v 10 25 2
v 10 26 2
v -10 23 1
v -10 25 1
v -9 23 1
v -9 25 1
v 9 23 1
v 9 25 1
v 10 23 1
v 10 25 1
v -10 0 -0
v -10 23 -0
v -9 23 -0
v -9 25 -0
v -8 25 -0
v -8 26 -0
v -7 26 -0
v -7 27 -0
v -6 27 -0
v -6 28 -0
v -5 28 -0
v -5 29 -0
v -3 29 -0
v -3 30 -0
v 3 29 -0
v 3 30 -0
v 5 28 -0
v 5 29 -0
v 6 27 -0
v 6 28 -0
v 7 26 -0
v 7 27 -0
v 8 25 -0
v 8 26 -0
v 9 23 -0
v 9 25 -0
v 10 0 -0
v 10 23 -0
v -10 0 10
v -9 0 10
v 9 0 10
v 10 0 10
v -9 0 1
v 9 0 1
v -10 0 -0
v 10 0 -0
v -10 23 1
v -9 23 1
v 9 23 1
v 10 23 1
v -10 23 -0
v -9 23 -0
v 9 23 -0
v 10 23 -0
v -10 25 2
v -9 25 2
v 9 25 2
v 10 25 2
v -10 25 1
v -9 25 1
v -8 25 1
v 8 25 1
v 9 25 1
v 10 25 1
v -9 25 -0
v -8 25 -0
v 8 25 -0
v 9 25 -0
v -10 26 3
v -9 26 3
v 9 26 3
v 10 26 3
v -10 26 2
v -9 26 2
v 9 26 2
v 10 26 2
v -8 26 1
v -7 26 1
v 7 26 1
v 8 26 1
v -8 26 -0
v -7 26 -0
v 7 26 -0
v 8 26 -0
v -10 27 4
v -9 27 4
v 9 27 4
v 10 27 4
v -10 27 3
v -9 27 3
v 9 27 3
v 10 27 3
v -7 27 1
v -6 27 1
v 6 27 1
v 7 27 1
v -7 27 -0
v -6 27 -0
v 6 27 -0
v 7 27 -0
v -10 28 5
v -9 28 5
v 9 28 5
v 10 28 5
v -10 28 4
v -9 28 4
v 9 28 4
v 10 28 4
v -6 28 1
v -5 28 1
v 5 28 1
v 6 28 1
v -6 28 -0
v -5 28 -0
v 5 28 -0
v 6 28 -0
v -10 29 7
v -9 29 7
v 9 29 7
v 10 29 7
v -10 29 5
v -9 29 5
v 9 29 5
v 10 29 5
v -5 29 1
v -3 29 1
v 3 29 1
v 5 29 1
v -5 29 -0
v -3 29 -0
v 3 29 -0
v 5 29 -0
v -10 30 10
v -9 30 10
v 9 30 10
v 10 30 10
v -10 30 7
v -9 30 7
v 9 30 7
v 10 30 7
v -3 30 1
v 3 30 1
v -3 30 -0
v 3 30 -0

# faces
f 3/2/1 2/2/1 1/2/1
f 4/2/1 2/2/1 3/2/1
f 5/1/1 4/1/1 3/1/1
f 6/1/1 4/1/1 5/1/1
f 7/1/1 5/1/1 3/1/1
f 7/2/1 6/2/1 5/2/1
f 8/1/1 4/1/1 6/1/1
f 8/2/1 6/2/1 7/2/1
f 9/1/1 8/1/1 7/1/1
f 9/1/1 4/1/1 8/1/1
f 10/2/1 2/2/1 4/2/1
f 10/1/1 4/1/1 9/1/1
f 11/2/1 2/2/1 10/2/1
f 12/1/1 9/1/1 7/1/1
f 13/2/1 10/2/1 9/2/1
f 13/1/1 9/1/1 12/1/1
f 14/2/1 10/2/1 13/2/1
f 15/1/1 12/1/1 7/1/1
f 16/2/1 13/2/1 12/2/1
f 16/1/1 12/1/1 15/1/1
f 17/2/1 13/2/1 16/2/1
f 18/1/1 15/1/1 7/1/1
f 19/2/1 16/2/1 15/2/1
f 19/1/1 15/1/1 18/1/1
f 20/2/1 16/2/1 19/2/1
f 21/1/1 18/1/1 7/1/1
f 22/2/1 19/2/1 18/2/1
f 22/1/1 18/1/1 21/1/1
f 23/2/1 19/2/1 22/2/1
f 24/2/1 3/2/1 1/2/1
f 24/1/1 7/1/1 3/1/1
f 24/1/1 21/1/1 7/1/1
f 25/2/1 22/2/1 21/2/1
f 25/1/1 21/1/1 24/1/1
f 26/2/1 22/2/1 25/2/1
f 27/2/1 24/2/1 1/2/1
f 27/2/1 25/2/1 24/2/1
f 28/2/1 25/2/1 27/2/1
f 31/2/1 30/2/1 29/2/1
f 32/2/1 30/2/1 31/2/1
f 35/2/1 34/2/1 33/2/1
f 36/2/1 34/2/1 35/2/1
f 39/2/1 38/2/1 37/2/1
f 40/2/1 38/2/1 39/2/1
f 43/2/1 42/2/1 41/2/1
f 44/2/1 42/2/1 43/2/1
f 47/2/1 46/2/1 45/2/1
f 48/2/1 46/2/1 47/2/1
f 51/2/1 50/2/1 49/2/1
f 52/2/1 50/2/1 51/2/1
f 55/2/1 54/2/1 53/2/1
f 56/2/1 54/2/1 55/2/1
f 57/1/1 56/1/1 55/1/1
f 58/1/1 56/1/1 57/1/1
f 59/1/1 57/1/1 55/1/1
f 59/2/1 58/2/1 57/2/1
f 60/1/1 56/1/1 58/1/1
f 60/2/1 58/2/1 59/2/1
f 61/1/1 60/1/1 59/1/1
f 61/1/1 56/1/1 60/1/1
f 62/1/1 56/1/1 61/1/1
f 63/1/1 61/1/1 59/1/1
f 64/2/1 62/2/1 61/2/1
f 64/1/1 61/1/1 63/1/1
f 65/2/1 62/2/1 64/2/1
f 66/1/1 63/1/1 59/1/1
f 67/2/1 64/2/1 63/2/1
f 67/1/1 63/1/1 66/1/1
f 68/2/1 64/2/1 67/2/1
f 69/1/1 66/1/1 59/1/1
f 70/2/1 67/2/1 66/2/1
f 70/1/1 66/1/1 69/1/1
f 71/2/1 67/2/1 70/2/1
f 72/1/1 69/1/1 59/1/1
f 73/2/1 70/2/1 69/2/1
f 73/1/1 69/1/1 72/1/1
f 74/2/1 70/2/1 73/2/1
f 75/2/1 55/2/1 53/2/1
f 75/1/1 59/1/1 55/1/1
f 75/1/1 72/1/1 59/1/1
f 76/2/1 73/2/1 72/2/1
f 76/1/1 72/1/1 75/1/1
f 77/2/1 73/2/1 76/2/1
f 78/2/1 75/2/1 53/2/1
f 78/2/1 76/2/1 75/2/1
f 79/2/1 76/2/1 78/2/1
f 80/2/2 81/2/2 82/2/2
f 82/2/2 81/2/2 83/2/2
f 82/1/2 83/1/2 84/1/2
f 84/1/2 83/1/2 85/1/2
f 82/1/2 84/1/2 86/1/2
f 84/2/2 85/2/2 86/2/2
f 85/1/2 83/1/2 87/1/2
f 86/2/2 85/2/2 87/2/2
f 86/1/2 87/1/2 88/1/2
f 87/1/2 83/1/2 88/1/2
f 88/1/2 83/1/2 89/1/2
f 86/1/2 88/1/2 90/1/2
f 88/2/2 89/2/2 91/2/2
f 90/1/2 88/1/2 91/1/2
f 91/2/2 89/2/2 92/2/2
f 86/1/2 90/1/2 93/1/2
f 90/2/2 91/2/2 94/2/2
f 93/1/2 90/1/2 94/1/2
f 94/2/2 91/2/2 95/2/2
f 86/1/2 93/1/2 96/1/2
f 93/2/2 94/2/2 97/2/2
f 96/1/2 93/1/2 97/1/2
f 97/2/2 94/2/2 98/2/2
f 86/1/2 96/1/2 99/1/2
f 96/2/2 97/2/2 100/2/2
f 99/1/2 96/1/2 100/1/2
f 100/2/2 97/2/2 101/2/2
f 80/2/2 82/2/2 102/2/2
f 82/1/2 86/1/2 102/1/2
f 86/1/2 99/1/2 102/1/2
f 99/2/2 100/2/2 103/2/2
f 102/1/2 99/1/2 103/1/2
f 103/2/2 100/2/2 104/2/2
f 80/2/2 102/2/2 105/2/2
f 102/2/2 103/2/2 105/2/2
f 105/2/2 103/2/2 106/2/2
f 107/2/2 108/2/2 109/2/2
f 109/2/2 108/2/2 110/2/2
f 111/2/2 112/2/2 113/2/2
f 113/2/2 112/2/2 114/2/2
f 115/2/2 116/2/2 117/2/2
f 117/2/2 116/2/2 118/2/2
f 119/2/2 120/2/2 121/2/2
f 121/2/2 120/2/2 122/2/2
f 123/2/2 124/2/2 125/2/2
f 125/2/2 124/2/2 126/2/2
f 127/2/2 128/2/2 129/2/2
f 129/2/2 128/2/2 130/2/2
f 131/2/2 132/2/2 133/2/2
f 133/2/2 132/2/2 134/2/2
f 133/1/2 134/1/2 135/1/2
f 135/1/2 134/1/2 136/1/2
f 133/1/2 135/1/2 137/1/2
f 135/2/2 136/2/2 137/2/2
f 136/1/2 134/1/2 138/1/2
f 137/2/2 136/2/2 138/2/2
f 137/1/2 138/1/2 139/1/2
f 138/1/2 134/1/2 139/1/2
f 134/2/2 132/2/2 140/2/2
f 139/1/2 134/1/2 140/1/2
f 140/2/2 132/2/2 141/2/2
f 137/1/2 139/1/2 142/1/2
f 139/2/2 140/2/2 143/2/2
f 142/1/2 139/1/2 143/1/2
f 143/2/2 140/2/2 144/2/2
f 137/1/2 142/1/2 145/1/2
f 142/2/2 143/2/2 146/2/2
f 145/1/2 142/1/2 146/1/2
f 146/2/2 143/2/2 147/2/2
f 137/1/2 145/1/2 148/1/2
f 145/2/2 146/2/2 149/2/2
f 148/1/2 145/1/2 149/1/2
f 149/2/2 146/2/2 150/2/2
f 137/1/2 148/1/2 151/1/2
f 148/2/2 149/2/2 152/2/2
f 151/1/2 148/1/2 152/1/2
f 152/2/2 149/2/2 153/2/2
f 131/2/2 133/2/2 154/2/2
f 133/1/2 137/1/2 154/1/2
f 137/1/2 151/1/2 154/1/2
f 151/2/2 152/2/2 155/2/2
f 154/1/2 151/1/2 155/1/2
f 155/2/2 152/2/2 156/2/2
f 131/2/2 154/2/2 157/2/2
f 154/2/2 155/2/2 157/2/2
f 157/2/2 155/2/2 158/2/2
f 161/2/3 160/2/3 159/2/3
f 162/2/3 160/2/3 161/2/3
f 165/2/3 164/2/3 163/2/3
f 166/2/3 164/2/3 165/2/3
f 171/2/3 168/2/3 167/2/3
f 171/2/3 170/2/3 169/2/3
f 171/2/3 169/2/3 168/2/3
f 173/2/3 172/2/3 171/2/3
f 175/2/3 174/2/3 173/2/3
f 177/2/3 176/2/3 175/2/3
f 179/2/3 178/2/3 177/2/3
f 181/2/3 179/2/3 177/2/3
f 181/2/3 180/2/3 179/2/3
f 182/2/3 180/2/3 181/2/3
f 183/2/3 177/2/3 175/2/3
f 183/2/3 181/2/3 177/2/3
f 184/2/3 181/2/3 183/2/3
f 185/2/3 175/2/3 173/2/3
f 185/2/3 183/2/3 175/2/3
f 186/2/3 183/2/3 185/2/3
f 187/2/3 173/2/3 171/2/3
f 187/2/3 185/2/3 173/2/3
f 188/2/3 185/2/3 187/2/3
f 189/2/3 171/2/3 167/2/3
f 189/2/3 187/2/3 171/2/3
f 190/2/3 187/2/3 189/2/3
f 191/2/3 189/2/3 167/2/3
f 192/2/3 189/2/3 191/2/3
f 193/2/3 189/2/3 192/2/3
f 194/2/3 189/2/3 193/2/3
f 195/2/4 196/2/4 197/2/4
f 197/2/4 196/2/4 198/2/4
f 199/2/4 200/2/4 201/2/4
f 201/2/4 200/2/4 202/2/4
f 203/2/4 204/2/4 205/2/4
f 205/2/4 204/2/4 206/2/4
f 207/2/4 208/2/4 209/2/4
f 209/2/4 208/2/4 210/2/4
f 211/2/4 212/2/4 213/2/4
f 213/2/4 212/2/4 214/2/4
f 215/2/4 216/2/4 217/2/4
f 217/2/4 216/2/4 218/2/4
f 219/2/4 220/2/4 221/2/4
f 221/2/4 220/2/4 222/2/4
f 223/2/4 224/2/4 225/2/4
f 225/2/4 224/2/4 226/2/4
f 227/2/4 228/2/4 229/2/4
f 229/2/4 228/2/4 230/2/4
f 231/2/4 232/2/4 233/2/4
f 233/2/4 232/2/4 234/2/4
f 235/2/4 236/2/4 237/2/4
f 237/2/4 236/2/4 238/2/4
f 239/2/4 240/2/4 241/2/4
f 241/2/4 240/2/4 242/2/4
f 243/2/4 244/2/4 245/2/4
f 245/2/4 246/2/4 247/2/4
f 247/2/4 248/2/4 249/2/4
f 249/2/4 250/2/4 251/2/4
f 251/2/4 252/2/4 253/2/4
f 253/2/4 254/2/4 255/2/4
f 253/2/4 255/2/4 257/2/4
f 255/2/4 256/2/4 257/2/4
f 257/2/4 256/2/4 258/2/4
f 251/2/4 253/2/4 259/2/4
f 253/2/4 257/2/4 259/2/4
f 259/2/4 257/2/4 260/2/4
f 249/2/4 251/2/4 261/2/4
f 251/2/4 259/2/4 261/2/4
f 261/2/4 259/2/4 262/2/4
f 247/2/4 249/2/4 263/2/4
f 249/2/4 261/2/4 263/2/4
f 263/2/4 261/2/4 264/2/4
f 245/2/4 247/2/4 265/2/4
f 247/2/4 263/2/4 265/2/4
f 265/2/4 263/2/4 266/2/4
f 243/2/4 245/2/4 267/2/4
f 245/2/4 265/2/4 267/2/4
f 267/2/4 265/2/4 268/2/4
f 243/2/4 267/2/4 269/2/4
f 269/2/4 267/2/4 270/2/4
f 275/2/5 272/2/5 271/2/5
f 276/2/5 274/2/5 273/2/5
f 277/2/5 275/2/5 271/2/5
f 277/2/5 276/2/5 275/2/5
f 278/2/5 274/2/5 276/2/5
f 278/2/5 276/2/5 277/2/5
f 279/2/6 280/2/6 283/2/6
f 283/2/6 280/2/6 284/2/6
f 281/2/6 282/2/6 285/2/6
f 285/2/6 282/2/6 286/2/6
f 287/2/6 288/2/6 291/2/6
f 291/2/6 288/2/6 292/2/6
f 289/2/6 290/2/6 295/2/6
f 295/2/6 290/2/6 296/2/6
f 292/2/6 293/2/6 297/2/6
f 297/2/6 293/2/6 298/2/6
f 294/2/6 295/2/6 299/2/6
f 299/2/6 295/2/6 300/2/6
f 301/2/6 302/2/6 305/2/6
f 305/2/6 302/2/6 306/2/6
f 303/2/6 304/2/6 307/2/6
f 307/2/6 304/2/6 308/2/6
f 309/2/6 310/2/6 313/2/6
f 313/2/6 310/2/6 314/2/6
f 311/2/6 312/2/6 315/2/6
f 315/2/6 312/2/6 316/2/6
f 317/2/6 318/2/6 321/2/6
f 321/2/6 318/2/6 322/2/6
f 319/2/6 320/2/6 323/2/6
f 323/2/6 320/2/6 324/2/6
f 325/2/6 326/2/6 329/2/6
f 329/2/6 326/2/6 330/2/6
f 327/2/6 328/2/6 331/2/6
f 331/2/6 328/2/6 332/2/6
f 333/2/6 334/2/6 337/2/6
f 337/2/6 334/2/6 338/2/6
f 335/2/6 336/2/6 339/2/6
f 339/2/6 336/2/6 340/2/6
f 341/2/6 342/2/6 345/2/6
f 345/2/6 342/2/6 346/2/6
f 343/2/6 344/2/6 347/2/6
f 347/2/6 344/2/6 348/2/6
f 349/2/6 350/2/6 353/2/6
f 353/2/6 350/2/6 354/2/6
f 351/2/6 352/2/6 355/2/6
f 355/2/6 352/2/6 356/2/6
f 357/2/6 358/2/6 361/2/6
f 361/2/6 358/2/6 362/2/6
f 359/2/6 360/2/6 363/2/6
f 363/2/6 360/2/6 364/2/6
f 365/2/6 366/2/6 369/2/6
f 369/2/6 366/2/6 370/2/6
f 367/2/6 368/2/6 371/2/6
f 371/2/6 368/2/6 372/2/6
f 373/2/6 374/2/6 375/2/6
f 375/2/6 374/2/6 376/2/6
