# MagicaVoxel @ Ephtracy

# group
g door

# material
mtllib door.mtl
usemtl palette

# normals
vn -1 0 0
vn 1 0 0
vn 0 0 1
vn 0 0 -1
vn 0 -1 0
vn 0 1 0

# texcoords
vt 0.537109 0.5
vt 0.994141 0.5

# verts
v -10 0 1
v -10 0 -0
v -10 23 1
v -10 23 -0
v -9 23 1
v -9 23 -0
v -9 25 1
v -9 25 -0
v -8 25 1
v -8 25 -0
v -8 26 1
v -8 26 -0
v -7 26 1
v -7 26 -0
v -7 27 1
v -7 27 -0
v -6 27 1
v -6 27 -0
v -6 28 1
v -6 28 -0
v -5 28 1
v -5 28 -0
v -5 29 1
v -5 29 -0
v -3 29 1
v -3 29 -0
v -3 30 1
v -3 30 -0
v 3 29 1
v 3 29 -0
v 3 30 1
v 3 30 -0
v 5 28 1
v 5 28 -0
v 5 29 1
v 5 29 -0
v 6 27 1
v 6 27 -0
v 6 28 1
v 6 28 -0
v 7 26 1
v 7 26 -0
v 7 27 1
v 7 27 -0
v 8 25 1
v 8 25 -0
v 8 26 1
v 8 26 -0
v 9 23 1
v 9 23 -0
v 9 25 1
v 9 25 -0
v 10 0 1
v 10 0 -0
v 10 23 1
v 10 23 -0
v -10 0 1
v -10 23 1
v -9 1 1
v -9 23 1
v -9 25 1
v -8 23 1
v -8 25 1
v -8 26 1
v -7 25 1
v -7 26 1
v -7 27 1
v -6 26 1
v -6 27 1
v -6 28 1
v -5 27 1
v -5 28 1
v -5 29 1
v -3 14 1
v -3 15 1
v -3 28 1
v -3 29 1
v -3 30 1
v -2 14 1
v -2 15 1
v -1 1 1
v -1 29 1
v 1 1 1
v 1 29 1
v 2 14 1
v 2 15 1
v 3 14 1
v 3 15 1
v 3 28 1
v 3 29 1
v 3 30 1
v 5 27 1
v 5 28 1
v 5 29 1
v 6 26 1
v 6 27 1
v 6 28 1
v 7 25 1
v 7 26 1
v 7 27 1
v 8 23 1
v 8 25 1
v 8 26 1
v 9 1 1
v 9 23 1
v 9 25 1
v 10 0 1
v 10 23 1
v -10 0 -0
v -10 23 -0
v -9 1 -0
v -9 23 -0
v -9 25 -0
v -8 23 -0
v -8 25 -0
v -8 26 -0
v -7 25 -0
v -7 26 -0
v -7 27 -0
v -6 26 -0
v -6 27 -0
v -6 28 -0
v -5 27 -0
v -5 28 -0
v -5 29 -0
v -3 14 -0
v -3 15 -0
v -3 28 -0
v -3 29 -0
v -3 30 -0
v -2 14 -0
v -2 15 -0
v -1 1 -0
v -1 29 -0
v 1 1 -0
v 1 29 -0
v 2 14 -0
v 2 15 -0
v 3 14 -0
v 3 15 -0
v 3 28 -0
v 3 29 -0
v 3 30 -0
v 5 27 -0
v 5 28 -0
v 5 29 -0
v 6 26 -0
v 6 27 -0
v 6 28 -0
v 7 25 -0
v 7 26 -0
v 7 27 -0
v 8 23 -0
v 8 25 -0
v 8 26 -0
v 9 1 -0
v 9 23 -0
v 9 25 -0
v 10 0 -0
v 10 23 -0
v -10 0 1
v 10 0 1
v -10 0 -0
v 10 0 -0
v -10 23 1
v -9 23 1
v 9 23 1
v 10 23 1
v -10 23 -0
v -9 23 -0
v 9 23 -0
v 10 23 -0
v -9 25 1
v -8 25 1
v 8 25 1
v 9 25 1
v -9 25 -0
v -8 25 -0
v 8 25 -0
v 9 25 -0
v -8 26 1
v -7 26 1
v 7 26 1
v 8 26 1
v -8 26 -0
v -7 26 -0
v 7 26 -0
v 8 26 -0
v -7 27 1
v -6 27 1
v 6 27 1
v 7 27 1
v -7 27 -0
v -6 27 -0
v 6 27 -0
v 7 27 -0
v -6 28 1
v -5 28 1
v 5 28 1
v 6 28 1
v -6 28 -0
v -5 28 -0
v 5 28 -0
v 6 28 -0
v -5 29 1
v -3 29 1
v 3 29 1
v 5 29 1
v -5 29 -0
v -3 29 -0
v 3 29 -0
v 5 29 -0
v -3 30 1
v 3 30 1
v -3 30 -0
v 3 30 -0

# faces
f 3/2/1 2/2/1 1/2/1
f 4/2/1 2/2/1 3/2/1
f 7/2/1 6/2/1 5/2/1
f 8/2/1 6/2/1 7/2/1
f 11/2/1 10/2/1 9/2/1
f 12/2/1 10/2/1 11/2/1
f 15/2/1 14/2/1 13/2/1
f 16/2/1 14/2/1 15/2/1
f 19/2/1 18/2/1 17/2/1
f 20/2/1 18/2/1 19/2/1
f 23/2/1 22/2/1 21/2/1
f 24/2/1 22/2/1 23/2/1
f 27/2/1 26/2/1 25/2/1
f 28/2/1 26/2/1 27/2/1
f 29/2/2 30/2/2 31/2/2
f 31/2/2 30/2/2 32/2/2
f 33/2/2 34/2/2 35/2/2
f 35/2/2 34/2/2 36/2/2
f 37/2/2 38/2/2 39/2/2
f 39/2/2 38/2/2 40/2/2
f 41/2/2 42/2/2 43/2/2
f 43/2/2 42/2/2 44/2/2
f 45/2/2 46/2/2 47/2/2
f 47/2/2 46/2/2 48/2/2
f 49/2/2 50/2/2 51/2/2
f 51/2/2 50/2/2 52/2/2
f 53/2/2 54/2/2 55/2/2
f 55/2/2 54/2/2 56/2/2
f 59/2/3 58/2/3 57/2/3
f 60/2/3 58/2/3 59/2/3
f 62/1/3 60/1/3 59/1/3
f 62/2/3 61/2/3 60/2/3
f 63/2/3 61/2/3 62/2/3
f 65/1/3 63/1/3 62/1/3
f 65/2/3 64/2/3 63/2/3
f 66/2/3 64/2/3 65/2/3
f 68/1/3 66/1/3 65/1/3
f 68/2/3 67/2/3 66/2/3
f 69/2/3 67/2/3 68/2/3
f 71/1/3 69/1/3 68/1/3
f 71/2/3 70/2/3 69/2/3
f 72/2/3 70/2/3 71/2/3
f 74/1/3 62/1/3 59/1/3
f 74/1/3 65/1/3 62/1/3
f 74/1/3 72/1/3 71/1/3
f 74/1/3 71/1/3 68/1/3
f 74/1/3 68/1/3 65/1/3
f 75/1/3 72/1/3 74/1/3
f 76/2/3 73/2/3 72/2/3
f 76/1/3 72/1/3 75/1/3
f 77/2/3 73/2/3 76/2/3
f 79/2/3 75/2/3 74/2/3
f 79/1/3 74/1/3 59/1/3
f 80/1/3 77/1/3 76/1/3
f 80/2/3 75/2/3 79/2/3
f 80/1/3 76/1/3 75/1/3
f 81/2/3 59/2/3 57/2/3
f 81/1/3 79/1/3 59/1/3
f 81/1/3 80/1/3 79/1/3
f 82/1/3 77/1/3 80/1/3
f 82/1/3 80/1/3 81/1/3
f 82/2/3 78/2/3 77/2/3
f 83/2/3 81/2/3 57/2/3
f 83/2/3 82/2/3 81/2/3
f 84/2/3 78/2/3 82/2/3
f 84/2/3 82/2/3 83/2/3
f 85/1/3 84/1/3 83/1/3
f 86/1/3 84/1/3 85/1/3
f 87/1/3 85/1/3 83/1/3
f 87/2/3 86/2/3 85/2/3
f 88/1/3 84/1/3 86/1/3
f 88/2/3 86/2/3 87/2/3
f 89/1/3 84/1/3 88/1/3
f 90/2/3 78/2/3 84/2/3
f 90/1/3 84/1/3 89/1/3
f 91/2/3 78/2/3 90/2/3
f 92/1/3 89/1/3 88/1/3
f 92/1/3 88/1/3 87/1/3
f 93/2/3 90/2/3 89/2/3
f 93/1/3 89/1/3 92/1/3
f 94/2/3 90/2/3 93/2/3
f 95/1/3 92/1/3 87/1/3
f 96/2/3 93/2/3 92/2/3
f 96/1/3 92/1/3 95/1/3
f 97/2/3 93/2/3 96/2/3
f 98/1/3 95/1/3 87/1/3
f 99/2/3 96/2/3 95/2/3
f 99/1/3 95/1/3 98/1/3
f 100/2/3 96/2/3 99/2/3
f 101/1/3 98/1/3 87/1/3
f 102/2/3 99/2/3 98/2/3
f 102/1/3 98/1/3 101/1/3
f 103/2/3 99/2/3 102/2/3
f 104/2/3 83/2/3 57/2/3
f 104/1/3 87/1/3 83/1/3
f 104/1/3 101/1/3 87/1/3
f 105/2/3 102/2/3 101/2/3
f 105/1/3 101/1/3 104/1/3
f 106/2/3 102/2/3 105/2/3
f 107/2/3 104/2/3 57/2/3
f 107/2/3 105/2/3 104/2/3
f 108/2/3 105/2/3 107/2/3
f 109/2/4 110/2/4 111/2/4
f 111/2/4 110/2/4 112/2/4
f 111/1/4 112/1/4 114/1/4
f 112/2/4 113/2/4 114/2/4
f 114/2/4 113/2/4 115/2/4
f 114/1/4 115/1/4 117/1/4
f 115/2/4 116/2/4 117/2/4
f 117/2/4 116/2/4 118/2/4
f 117/1/4 118/1/4 120/1/4
f 118/2/4 119/2/4 120/2/4
f 120/2/4 119/2/4 121/2/4
f 120/1/4 121/1/4 123/1/4
f 121/2/4 122/2/4 123/2/4
f 123/2/4 122/2/4 124/2/4
f 111/1/4 114/1/4 126/1/4
f 114/1/4 117/1/4 126/1/4
f 123/1/4 124/1/4 126/1/4
f 120/1/4 123/1/4 126/1/4
f 117/1/4 120/1/4 126/1/4
f 126/1/4 124/1/4 127/1/4
f 124/2/4 125/2/4 128/2/4
f 127/1/4 124/1/4 128/1/4
f 128/2/4 125/2/4 129/2/4
f 126/2/4 127/2/4 131/2/4
f 111/1/4 126/1/4 131/1/4
f 128/1/4 129/1/4 132/1/4
f 131/2/4 127/2/4 132/2/4
f 127/1/4 128/1/4 132/1/4
f 109/2/4 111/2/4 133/2/4
f 111/1/4 131/1/4 133/1/4
f 131/1/4 132/1/4 133/1/4
f 132/1/4 129/1/4 134/1/4
f 133/1/4 132/1/4 134/1/4
f 129/2/4 130/2/4 134/2/4
f 109/2/4 133/2/4 135/2/4
f 133/2/4 134/2/4 135/2/4
f 134/2/4 130/2/4 136/2/4
f 135/2/4 134/2/4 136/2/4
f 135/1/4 136/1/4 137/1/4
f 137/1/4 136/1/4 138/1/4
f 135/1/4 137/1/4 139/1/4
f 137/2/4 138/2/4 139/2/4
f 138/1/4 136/1/4 140/1/4
f 139/2/4 138/2/4 140/2/4
f 140/1/4 136/1/4 141/1/4
f 136/2/4 130/2/4 142/2/4
f 141/1/4 136/1/4 142/1/4
f 142/2/4 130/2/4 143/2/4
f 140/1/4 141/1/4 144/1/4
f 139/1/4 140/1/4 144/1/4
f 141/2/4 142/2/4 145/2/4
f 144/1/4 141/1/4 145/1/4
f 145/2/4 142/2/4 146/2/4
f 139/1/4 144/1/4 147/1/4
f 144/2/4 145/2/4 148/2/4
f 147/1/4 144/1/4 148/1/4
f 148/2/4 145/2/4 149/2/4
f 139/1/4 147/1/4 150/1/4
f 147/2/4 148/2/4 151/2/4
f 150/1/4 147/1/4 151/1/4
f 151/2/4 148/2/4 152/2/4
f 139/1/4 150/1/4 153/1/4
f 150/2/4 151/2/4 154/2/4
f 153/1/4 150/1/4 154/1/4
f 154/2/4 151/2/4 155/2/4
f 109/2/4 135/2/4 156/2/4
f 135/1/4 139/1/4 156/1/4
f 139/1/4 153/1/4 156/1/4
f 153/2/4 154/2/4 157/2/4
f 156/1/4 153/1/4 157/1/4
f 157/2/4 154/2/4 158/2/4
f 109/2/4 156/2/4 159/2/4
f 156/2/4 157/2/4 159/2/4
f 159/2/4 157/2/4 160/2/4
f 163/2/5 162/2/5 161/2/5
f 164/2/5 162/2/5 163/2/5
f 165/2/6 166/2/6 169/2/6
f 169/2/6 166/2/6 170/2/6
f 167/2/6 168/2/6 171/2/6
f 171/2/6 168/2/6 172/2/6
f 173/2/6 174/2/6 177/2/6
f 177/2/6 174/2/6 178/2/6
f 175/2/6 176/2/6 179/2/6
f 179/2/6 176/2/6 180/2/6
f 181/2/6 182/2/6 185/2/6
f 185/2/6 182/2/6 186/2/6
f 183/2/6 184/2/6 187/2/6
f 187/2/6 184/2/6 188/2/6
f 189/2/6 190/2/6 193/2/6
f 193/2/6 190/2/6 194/2/6
f 191/2/6 192/2/6 195/2/6
f 195/2/6 192/2/6 196/2/6
f 197/2/6 198/2/6 201/2/6
f 201/2/6 198/2/6 202/2/6
f 199/2/6 200/2/6 203/2/6
f 203/2/6 200/2/6 204/2/6
f 205/2/6 206/2/6 209/2/6
f 209/2/6 206/2/6 210/2/6
f 207/2/6 208/2/6 211/2/6
f 211/2/6 208/2/6 212/2/6
f 213/2/6 214/2/6 215/2/6
f 215/2/6 214/2/6 216/2/6
