# MagicaVoxel @ Ephtracy

# group
g tourniquet

# material
mtllib tourniquet.mtl
usemtl palette

# normals
vn -1 0 0
vn 1 0 0
vn 0 0 1
vn 0 0 -1
vn 0 -1 0
vn 0 1 0

# texcoords
vt 0.306641 0.5
vt 0.841797 0.5
vt 0.966797 0.5
vt 0.986328 0.5

# verts
v -37 95 3
v -37 95 -0
v -37 98 3
v -37 98 -0
v 15 94 3
v 15 94 -0
v 15 95 4
v 15 95 3
v 15 95 -0
v 15 95 -1
v 15 98 4
v 15 98 3
v 15 98 -0
v 15 98 -1
v 15 99 3
v 15 99 -0
v 16 93 3
v 16 93 -0
v 16 94 4
v 16 94 3
v 16 94 -0
v 16 94 -1
v 16 95 5
v 16 95 4
v 16 95 3
v 16 95 -0
v 16 95 -1
v 16 95 -2
v 16 98 5
v 16 98 4
v 16 98 3
v 16 98 -0
v 16 98 -1
v 16 98 -2
v 16 99 4
v 16 99 3
v 16 99 -0
v 16 99 -1
v 16 100 3
v 16 100 -0
v 17 92 4
v 17 92 -1
v 17 93 5
v 17 93 4
v 17 93 3
v 17 93 -0
v 17 93 -1
v 17 93 -2
v 17 94 6
v 17 94 5
v 17 94 4
v 17 94 3
v 17 94 -0
v 17 94 -1
v 17 94 -2
v 17 94 -3
v 17 95 5
v 17 95 4
v 17 95 -1
v 17 95 -2
v 17 98 5
v 17 98 4
v 17 98 -1
v 17 98 -2
v 17 99 6
v 17 99 5
v 17 99 4
v 17 99 3
v 17 99 -0
v 17 99 -1
v 17 99 -2
v 17 99 -3
v 17 100 5
v 17 100 4
v 17 100 3
v 17 100 -0
v 17 100 -1
v 17 100 -2
v 17 101 4
v 17 101 -1
v 19 0 3
v 19 0 -2
v 19 88 11
v 19 88 3
v 19 88 -2
v 19 88 -8
v 19 92 4
v 19 92 -1
v 19 93 5
v 19 93 4
v 19 93 -1
v 19 93 -2
v 19 94 6
v 19 94 5
v 19 94 -2
v 19 94 -3
v 19 99 6
v 19 99 5
v 19 99 -2
v 19 99 -3
v 19 100 5
v 19 100 4
v 19 100 -1
v 19 100 -2
v 19 101 4
v 19 101 -1
v 19 102 11
v 19 102 -8
v 20 0 5
v 20 0 3
v 20 0 -2
v 20 0 -4
v 20 88 5
v 20 88 3
v 20 88 -2
v 20 88 -4
v 21 0 7
v 21 0 5
v 21 0 -4
v 21 0 -6
v 21 88 7
v 21 88 5
v 21 88 -4
v 21 88 -6
v 23 0 8
v 23 0 7
v 23 0 -6
v 23 0 -7
v 23 88 8
v 23 88 7
v 23 88 -6
v 23 88 -7
v 25 0 11
v 25 0 8
v 25 0 -7
v 25 0 -8
v 25 88 11
v 25 88 8
v 25 88 -7
v 25 88 -8
v 30 0 11
v 30 0 8
v 30 0 -7
v 30 0 -8
v 30 88 11
v 30 88 8
v 30 88 -7
v 30 88 -8
v 32 0 8
v 32 0 7
v 32 0 -6
v 32 0 -7
v 32 88 8
v 32 88 7
v 32 88 -6
v 32 88 -7
v 34 0 7
v 34 0 5
v 34 0 -4
v 34 0 -6
v 34 88 7
v 34 88 5
v 34 88 -4
v 34 88 -6
v 35 0 5
v 35 0 3
v 35 0 -2
v 35 0 -4
v 35 88 5
v 35 88 3
v 35 88 -2
v 35 88 -4
v 36 0 3
v 36 0 -2
v 36 88 11
v 36 88 3
v 36 88 -2
v 36 88 -8
v 36 102 11
v 36 102 -8
v 19 88 11
v 19 102 11
v 25 0 11
v 25 88 11
v 30 0 11
v 30 88 11
v 36 88 11
v 36 102 11
v 23 0 8
v 23 88 8
v 25 0 8
v 25 88 8
v 30 0 8
v 30 88 8
v 32 0 8
v 32 88 8
v 21 0 7
v 21 88 7
v 23 0 7
v 23 88 7
v 32 0 7
v 32 88 7
v 34 0 7
v 34 88 7
v 17 94 6
v 17 99 6
v 19 94 6
v 19 99 6
v 16 95 5
v 16 98 5
v 17 93 5
v 17 94 5
v 17 95 5
v 17 98 5
v 17 99 5
v 17 100 5
v 19 93 5
v 19 94 5
v 19 99 5
v 19 100 5
v 20 0 5
v 20 88 5
v 21 0 5
v 21 88 5
v 34 0 5
v 34 88 5
v 35 0 5
v 35 88 5
v 15 95 4
v 15 98 4
v 16 94 4
v 16 95 4
v 16 98 4
v 16 99 4
v 17 92 4
v 17 93 4
v 17 94 4
v 17 95 4
v 17 98 4
v 17 99 4
v 17 100 4
v 17 101 4
v 19 92 4
v 19 93 4
v 19 100 4
v 19 101 4
v -37 95 3
v -37 98 3
v 15 94 3
v 15 95 3
v 15 98 3
v 15 99 3
v 16 93 3
v 16 94 3
v 16 95 3
v 16 98 3
v 16 99 3
v 16 100 3
v 17 93 3
v 17 94 3
v 17 99 3
v 17 100 3
v 19 0 3
v 19 88 3
v 20 0 3
v 20 88 3
v 35 0 3
v 35 88 3
v 36 0 3
v 36 88 3
v -37 95 -0
v -37 98 -0
v 15 94 -0
v 15 95 -0
v 15 98 -0
v 15 99 -0
v 16 93 -0
v 16 94 -0
v 16 95 -0
v 16 98 -0
v 16 99 -0
v 16 100 -0
v 17 93 -0
v 17 94 -0
v 17 99 -0
v 17 100 -0
v 15 95 -1
v 15 98 -1
v 16 94 -1
v 16 95 -1
v 16 98 -1
v 16 99 -1
v 17 92 -1
v 17 93 -1
v 17 94 -1
v 17 95 -1
v 17 98 -1
v 17 99 -1
v 17 100 -1
v 17 101 -1
v 19 92 -1
v 19 93 -1
v 19 100 -1
v 19 101 -1
v 16 95 -2
v 16 98 -2
v 17 93 -2
v 17 94 -2
v 17 95 -2
v 17 98 -2
v 17 99 -2
v 17 100 -2
v 19 0 -2
v 19 88 -2
v 19 93 -2
v 19 94 -2
v 19 99 -2
v 19 100 -2
v 20 0 -2
v 20 88 -2
v 35 0 -2
v 35 88 -2
v 36 0 -2
v 36 88 -2
v 17 94 -3
v 17 99 -3
v 19 94 -3
v 19 99 -3
v 20 0 -4
v 20 88 -4
v 21 0 -4
v 21 88 -4
v 34 0 -4
v 34 88 -4
v 35 0 -4
v 35 88 -4
v 21 0 -6
v 21 88 -6
v 23 0 -6
v 23 88 -6
v 32 0 -6
v 32 88 -6
v 34 0 -6
v 34 88 -6
v 23 0 -7
v 23 88 -7
v 25 0 -7
v 25 88 -7
v 30 0 -7
v 30 88 -7
v 32 0 -7
v 32 88 -7
v 19 88 -8
v 19 102 -8
v 25 0 -8
v 25 88 -8
v 30 0 -8
v 30 88 -8
v 36 88 -8
v 36 102 -8
v 25 0 11
v 30 0 11
v 23 0 8
v 25 0 8
v 30 0 8
v 32 0 8
v 21 0 7
v 23 0 7
v 25 0 7
v 30 0 7
v 32 0 7
v 34 0 7
v 22 0 6
v 23 0 6
v 32 0 6
v 33 0 6
v 20 0 5
v 21 0 5
v 22 0 5
v 33 0 5
v 34 0 5
v 35 0 5
v 19 0 3
v 20 0 3
v 21 0 3
v 25 0 3
v 30 0 3
v 34 0 3
v 35 0 3
v 36 0 3
v 19 0 -2
v 20 0 -2
v 35 0 -2
v 36 0 -2
v 20 0 -4
v 21 0 -4
v 22 0 -4
v 25 0 -4
v 30 0 -4
v 33 0 -4
v 34 0 -4
v 35 0 -4
v 22 0 -5
v 23 0 -5
v 32 0 -5
v 33 0 -5
v 21 0 -6
v 23 0 -6
v 25 0 -6
v 30 0 -6
v 32 0 -6
v 34 0 -6
v 23 0 -7
v 25 0 -7
v 30 0 -7
v 32 0 -7
v 25 0 -8
v 30 0 -8
v 19 88 11
v 25 88 11
v 30 88 11
v 36 88 11
v 23 88 8
v 25 88 8
v 30 88 8
v 32 88 8
v 21 88 7
v 23 88 7
v 32 88 7
v 34 88 7
v 20 88 5
v 21 88 5
v 34 88 5
v 35 88 5
v 19 88 3
v 20 88 3
v 35 88 3
v 36 88 3
v 19 88 -2
v 20 88 -2
v 35 88 -2
v 36 88 -2
v 20 88 -4
v 21 88 -4
v 34 88 -4
v 35 88 -4
v 21 88 -6
v 23 88 -6
v 32 88 -6
v 34 88 -6
v 23 88 -7
v 25 88 -7
v 30 88 -7
v 32 88 -7
v 19 88 -8
v 25 88 -8
v 30 88 -8
v 36 88 -8
v 17 92 4
v 19 92 4
v 17 92 -1
v 19 92 -1
v 17 93 5
v 19 93 5
v 17 93 4
v 19 93 4
v 16 93 3
v 17 93 3
v 16 93 -0
v 17 93 -0
v 17 93 -1
v 19 93 -1
v 17 93 -2
v 19 93 -2
v 17 94 6
v 19 94 6
v 17 94 5
v 19 94 5
v 16 94 4
v 17 94 4
v 15 94 3
v 16 94 3
v 17 94 3
v 15 94 -0
v 16 94 -0
v 17 94 -0
v 16 94 -1
v 17 94 -1
v 17 94 -2
v 19 94 -2
v 17 94 -3
v 19 94 -3
v 16 95 5
v 17 95 5
v 15 95 4
v 16 95 4
v 17 95 4
v -37 95 3
v 15 95 3
v 16 95 3
v -37 95 -0
v 15 95 -0
v 16 95 -0
v 15 95 -1
v 16 95 -1
v 17 95 -1
v 16 95 -2
v 17 95 -2
v 16 98 5
v 17 98 5
v 15 98 4
v 16 98 4
v 17 98 4
v -37 98 3
v 15 98 3
v 16 98 3
v -37 98 -0
v 15 98 -0
v 16 98 -0
v 15 98 -1
v 16 98 -1
v 17 98 -1
v 16 98 -2
v 17 98 -2
v 17 99 6
v 19 99 6
v 17 99 5
v 19 99 5
v 16 99 4
v 17 99 4
v 15 99 3
v 16 99 3
v 17 99 3
v 15 99 -0
v 16 99 -0
v 17 99 -0
v 16 99 -1
v 17 99 -1
v 17 99 -2
v 19 99 -2
v 17 99 -3
v 19 99 -3
v 17 100 5
v 19 100 5
v 17 100 4
v 19 100 4
v 16 100 3
v 17 100 3
v 16 100 -0
v 17 100 -0
v 17 100 -1
v 19 100 -1
v 17 100 -2
v 19 100 -2
v 17 101 4
v 19 101 4
v 17 101 -1
v 19 101 -1
v 19 102 11
v 36 102 11
v 19 102 -8
v 36 102 -8

# faces
f 3/3/1 2/3/1 1/3/1
f 4/3/1 2/3/1 3/3/1
f 8/2/1 6/2/1 5/2/1
f 9/2/1 6/2/1 8/2/1
f 11/2/1 8/2/1 7/2/1
f 12/2/1 8/2/1 11/2/1
f 13/2/1 10/2/1 9/2/1
f 14/2/1 10/2/1 13/2/1
f 15/2/1 13/2/1 12/2/1
f 16/2/1 13/2/1 15/2/1
f 20/2/1 18/2/1 17/2/1
f 21/2/1 18/2/1 20/2/1
f 24/2/1 20/2/1 19/2/1
f 25/2/1 20/2/1 24/2/1
f 26/2/1 22/2/1 21/2/1
f 27/2/1 22/2/1 26/2/1
f 29/2/1 24/2/1 23/2/1
f 30/2/1 24/2/1 29/2/1
f 33/2/1 28/2/1 27/2/1
f 34/2/1 28/2/1 33/2/1
f 35/2/1 31/2/1 30/2/1
f 36/2/1 31/2/1 35/2/1
f 37/2/1 33/2/1 32/2/1
f 38/2/1 33/2/1 37/2/1
f 39/2/1 37/2/1 36/2/1
f 40/2/1 37/2/1 39/2/1
f 44/2/1 42/2/1 41/2/1
f 45/2/1 42/2/1 44/2/1
f 46/2/1 42/2/1 45/2/1
f 47/2/1 42/2/1 46/2/1
f 50/2/1 44/2/1 43/2/1
f 50/2/1 45/2/1 44/2/1
f 51/2/1 45/2/1 50/2/1
f 52/2/1 45/2/1 51/2/1
f 53/2/1 47/2/1 46/2/1
f 53/2/1 48/2/1 47/2/1
f 54/2/1 48/2/1 53/2/1
f 55/2/1 48/2/1 54/2/1
f 57/2/1 51/2/1 50/2/1
f 57/2/1 50/2/1 49/2/1
f 58/2/1 51/2/1 57/2/1
f 59/2/1 56/2/1 55/2/1
f 59/2/1 55/2/1 54/2/1
f 60/2/1 56/2/1 59/2/1
f 61/2/1 57/2/1 49/2/1
f 64/2/1 56/2/1 60/2/1
f 65/2/1 62/2/1 61/2/1
f 65/2/1 61/2/1 49/2/1
f 66/2/1 62/2/1 65/2/1
f 67/2/1 62/2/1 66/2/1
f 70/2/1 64/2/1 63/2/1
f 71/2/1 56/2/1 64/2/1
f 71/2/1 64/2/1 70/2/1
f 72/2/1 56/2/1 71/2/1
f 73/2/1 68/2/1 67/2/1
f 73/2/1 67/2/1 66/2/1
f 74/2/1 68/2/1 73/2/1
f 75/2/1 68/2/1 74/2/1
f 76/2/1 70/2/1 69/2/1
f 76/2/1 71/2/1 70/2/1
f 77/2/1 71/2/1 76/2/1
f 78/2/1 71/2/1 77/2/1
f 79/2/1 75/2/1 74/2/1
f 79/2/1 77/2/1 76/2/1
f 79/2/1 76/2/1 75/2/1
f 80/2/1 77/2/1 79/2/1
f 84/4/1 82/4/1 81/4/1
f 85/4/1 82/4/1 84/4/1
f 87/4/1 84/4/1 83/4/1
f 87/4/1 86/4/1 85/4/1
f 87/4/1 85/4/1 84/4/1
f 88/4/1 86/4/1 87/4/1
f 89/4/1 87/4/1 83/4/1
f 90/4/1 87/4/1 89/4/1
f 91/4/1 86/4/1 88/4/1
f 92/4/1 86/4/1 91/4/1
f 93/4/1 89/4/1 83/4/1
f 94/4/1 89/4/1 93/4/1
f 95/4/1 86/4/1 92/4/1
f 96/4/1 86/4/1 95/4/1
f 97/4/1 93/4/1 83/4/1
f 100/4/1 86/4/1 96/4/1
f 101/4/1 98/4/1 97/4/1
f 104/4/1 100/4/1 99/4/1
f 105/4/1 102/4/1 101/4/1
f 106/4/1 104/4/1 103/4/1
f 107/4/1 105/4/1 101/4/1
f 107/4/1 106/4/1 105/4/1
f 107/4/1 97/4/1 83/4/1
f 107/4/1 101/4/1 97/4/1
f 108/4/1 104/4/1 106/4/1
f 108/4/1 106/4/1 107/4/1
f 108/4/1 86/4/1 100/4/1
f 108/4/1 100/4/1 104/4/1
f 113/4/1 110/4/1 109/4/1
f 114/4/1 110/4/1 113/4/1
f 115/4/1 112/4/1 111/4/1
f 116/4/1 112/4/1 115/4/1
f 121/4/1 118/4/1 117/4/1
f 122/4/1 118/4/1 121/4/1
f 123/4/1 120/4/1 119/4/1
f 124/4/1 120/4/1 123/4/1
f 129/4/1 126/4/1 125/4/1
f 130/4/1 126/4/1 129/4/1
f 131/4/1 128/4/1 127/4/1
f 132/4/1 128/4/1 131/4/1
f 137/4/1 134/4/1 133/4/1
f 138/4/1 134/4/1 137/4/1
f 139/4/1 136/4/1 135/4/1
f 140/4/1 136/4/1 139/4/1
f 141/4/2 142/4/2 145/4/2
f 145/4/2 142/4/2 146/4/2
f 143/4/2 144/4/2 147/4/2
f 147/4/2 144/4/2 148/4/2
f 149/4/2 150/4/2 153/4/2
f 153/4/2 150/4/2 154/4/2
f 151/4/2 152/4/2 155/4/2
f 155/4/2 152/4/2 156/4/2
f 157/4/2 158/4/2 161/4/2
f 161/4/2 158/4/2 162/4/2
f 159/4/2 160/4/2 163/4/2
f 163/4/2 160/4/2 164/4/2
f 165/4/2 166/4/2 169/4/2
f 169/4/2 166/4/2 170/4/2
f 167/4/2 168/4/2 171/4/2
f 171/4/2 168/4/2 172/4/2
f 173/4/2 174/4/2 176/4/2
f 176/4/2 174/4/2 177/4/2
f 175/4/2 176/4/2 179/4/2
f 177/4/2 178/4/2 179/4/2
f 176/4/2 177/4/2 179/4/2
f 179/4/2 178/4/2 180/4/2
f 184/4/3 182/4/3 181/4/3
f 185/4/3 184/4/3 183/4/3
f 186/4/3 182/4/3 184/4/3
f 186/4/3 184/4/3 185/4/3
f 187/4/3 182/4/3 186/4/3
f 188/4/3 182/4/3 187/4/3
f 191/4/3 190/4/3 189/4/3
f 192/4/3 190/4/3 191/4/3
f 195/4/3 194/4/3 193/4/3
f 196/4/3 194/4/3 195/4/3
f 199/4/3 198/4/3 197/4/3
f 200/4/3 198/4/3 199/4/3
f 203/4/3 202/4/3 201/4/3
f 204/4/3 202/4/3 203/4/3
f 207/2/3 206/2/3 205/2/3
f 208/2/3 206/2/3 207/2/3
f 213/2/3 210/2/3 209/2/3
f 214/2/3 210/2/3 213/2/3
f 217/2/3 212/2/3 211/2/3
f 218/2/3 212/2/3 217/2/3
f 219/2/3 216/2/3 215/2/3
f 220/2/3 216/2/3 219/2/3
f 223/4/3 222/4/3 221/4/3
f 224/4/3 222/4/3 223/4/3
f 227/4/3 226/4/3 225/4/3
f 228/4/3 226/4/3 227/4/3
f 232/2/3 230/2/3 229/2/3
f 233/2/3 230/2/3 232/2/3
f 237/2/3 232/2/3 231/2/3
f 238/2/3 232/2/3 237/2/3
f 239/2/3 234/2/3 233/2/3
f 240/2/3 234/2/3 239/2/3
f 243/2/3 236/2/3 235/2/3
f 244/2/3 236/2/3 243/2/3
f 245/2/3 242/2/3 241/2/3
f 246/2/3 242/2/3 245/2/3
f 250/3/3 248/3/3 247/3/3
f 251/3/3 248/3/3 250/3/3
f 254/2/3 250/2/3 249/2/3
f 255/2/3 250/2/3 254/2/3
f 256/2/3 252/2/3 251/2/3
f 257/2/3 252/2/3 256/2/3
f 259/2/3 254/2/3 253/2/3
f 260/2/3 254/2/3 259/2/3
f 261/2/3 258/2/3 257/2/3
f 262/2/3 258/2/3 261/2/3
f 265/4/3 264/4/3 263/4/3
f 266/4/3 264/4/3 265/4/3
f 269/4/3 268/4/3 267/4/3
f 270/4/3 268/4/3 269/4/3
f 271/3/4 272/3/4 274/3/4
f 274/3/4 272/3/4 275/3/4
f 273/2/4 274/2/4 278/2/4
f 278/2/4 274/2/4 279/2/4
f 275/2/4 276/2/4 280/2/4
f 280/2/4 276/2/4 281/2/4
f 277/2/4 278/2/4 283/2/4
f 283/2/4 278/2/4 284/2/4
f 281/2/4 282/2/4 285/2/4
f 285/2/4 282/2/4 286/2/4
f 287/2/4 288/2/4 290/2/4
f 290/2/4 288/2/4 291/2/4
f 289/2/4 290/2/4 295/2/4
f 295/2/4 290/2/4 296/2/4
f 291/2/4 292/2/4 297/2/4
f 297/2/4 292/2/4 298/2/4
f 293/2/4 294/2/4 301/2/4
f 301/2/4 294/2/4 302/2/4
f 299/2/4 300/2/4 303/2/4
f 303/2/4 300/2/4 304/2/4
f 305/2/4 306/2/4 309/2/4
f 309/2/4 306/2/4 310/2/4
f 307/2/4 308/2/4 315/2/4
f 315/2/4 308/2/4 316/2/4
f 311/2/4 312/2/4 317/2/4
f 317/2/4 312/2/4 318/2/4
f 313/4/4 314/4/4 319/4/4
f 319/4/4 314/4/4 320/4/4
f 321/4/4 322/4/4 323/4/4
f 323/4/4 322/4/4 324/4/4
f 325/2/4 326/2/4 327/2/4
f 327/2/4 326/2/4 328/2/4
f 329/4/4 330/4/4 331/4/4
f 331/4/4 330/4/4 332/4/4
f 333/4/4 334/4/4 335/4/4
f 335/4/4 334/4/4 336/4/4
f 337/4/4 338/4/4 339/4/4
f 339/4/4 338/4/4 340/4/4
f 341/4/4 342/4/4 343/4/4
f 343/4/4 342/4/4 344/4/4
f 345/4/4 346/4/4 347/4/4
f 347/4/4 346/4/4 348/4/4
f 349/4/4 350/4/4 351/4/4
f 351/4/4 350/4/4 352/4/4
f 353/4/4 354/4/4 356/4/4
f 355/4/4 356/4/4 357/4/4
f 356/4/4 354/4/4 358/4/4
f 357/4/4 356/4/4 358/4/4
f 358/4/4 354/4/4 359/4/4
f 359/4/4 354/4/4 360/4/4
f 364/4/5 362/4/5 361/4/5
f 365/4/5 362/4/5 364/4/5
f 368/4/5 364/4/5 363/4/5
f 368/4/5 366/4/5 365/4/5
f 368/4/5 365/4/5 364/4/5
f 369/4/5 366/4/5 368/4/5
f 370/4/5 366/4/5 369/4/5
f 371/4/5 366/4/5 370/4/5
f 373/4/5 368/4/5 367/4/5
f 374/1/5 369/1/5 368/1/5
f 374/4/5 368/4/5 373/4/5
f 375/4/5 372/4/5 371/4/5
f 375/1/5 371/1/5 370/1/5
f 376/4/5 372/4/5 375/4/5
f 378/4/5 373/4/5 367/4/5
f 379/1/5 374/1/5 373/1/5
f 379/4/5 373/4/5 378/4/5
f 380/4/5 372/4/5 376/4/5
f 380/1/5 376/1/5 375/1/5
f 381/4/5 372/4/5 380/4/5
f 384/4/5 378/4/5 377/4/5
f 385/1/5 379/1/5 378/1/5
f 385/4/5 378/4/5 384/4/5
f 386/1/5 369/1/5 374/1/5
f 386/1/5 379/1/5 385/1/5
f 386/1/5 374/1/5 379/1/5
f 386/4/5 370/4/5 369/4/5
f 387/1/5 381/1/5 380/1/5
f 387/4/5 370/4/5 386/4/5
f 387/1/5 375/1/5 370/1/5
f 387/1/5 380/1/5 375/1/5
f 388/4/5 382/4/5 381/4/5
f 388/1/5 381/1/5 387/1/5
f 389/4/5 382/4/5 388/4/5
f 391/4/5 385/4/5 384/4/5
f 391/4/5 390/4/5 389/4/5
f 391/4/5 389/4/5 388/4/5
f 391/4/5 388/4/5 387/4/5
f 391/4/5 384/4/5 383/4/5
f 391/4/5 386/4/5 385/4/5
f 391/4/5 387/4/5 386/4/5
f 392/4/5 390/4/5 391/4/5
f 393/4/5 390/4/5 392/4/5
f 394/4/5 390/4/5 393/4/5
f 395/4/5 393/4/5 392/4/5
f 396/4/5 393/4/5 395/4/5
f 397/4/5 393/4/5 396/4/5
f 398/4/5 393/4/5 397/4/5
f 399/4/5 393/4/5 398/4/5
f 400/4/5 393/4/5 399/4/5
f 401/4/5 393/4/5 400/4/5
f 402/4/5 393/4/5 401/4/5
f 403/4/5 397/4/5 396/4/5
f 403/1/5 398/1/5 397/1/5
f 404/1/5 398/1/5 403/1/5
f 405/1/5 400/1/5 399/1/5
f 406/4/5 401/4/5 400/4/5
f 406/1/5 400/1/5 405/1/5
f 407/4/5 403/4/5 396/4/5
f 407/4/5 404/4/5 403/4/5
f 408/1/5 398/1/5 404/1/5
f 408/4/5 404/4/5 407/4/5
f 409/4/5 399/4/5 398/4/5
f 409/1/5 398/1/5 408/1/5
f 410/1/5 405/1/5 399/1/5
f 410/4/5 399/4/5 409/4/5
f 411/4/5 406/4/5 405/4/5
f 411/1/5 405/1/5 410/1/5
f 412/4/5 401/4/5 406/4/5
f 412/4/5 406/4/5 411/4/5
f 413/4/5 409/4/5 408/4/5
f 413/4/5 410/4/5 409/4/5
f 413/4/5 411/4/5 410/4/5
f 414/4/5 411/4/5 413/4/5
f 415/4/5 411/4/5 414/4/5
f 416/4/5 411/4/5 415/4/5
f 417/4/5 415/4/5 414/4/5
f 418/4/5 415/4/5 417/4/5
f 423/4/5 420/4/5 419/4/5
f 424/4/5 420/4/5 423/4/5
f 425/4/5 422/4/5 421/4/5
f 426/4/5 422/4/5 425/4/5
f 427/4/5 423/4/5 419/4/5
f 428/4/5 423/4/5 427/4/5
f 429/4/5 422/4/5 426/4/5
f 430/4/5 422/4/5 429/4/5
f 431/4/5 427/4/5 419/4/5
f 432/4/5 427/4/5 431/4/5
f 433/4/5 422/4/5 430/4/5
f 434/4/5 422/4/5 433/4/5
f 435/4/5 431/4/5 419/4/5
f 436/4/5 431/4/5 435/4/5
f 437/4/5 422/4/5 434/4/5
f 438/4/5 422/4/5 437/4/5
f 443/4/5 440/4/5 439/4/5
f 446/4/5 442/4/5 441/4/5
f 447/4/5 444/4/5 443/4/5
f 450/4/5 446/4/5 445/4/5
f 451/4/5 448/4/5 447/4/5
f 454/4/5 450/4/5 449/4/5
f 455/4/5 452/4/5 451/4/5
f 455/4/5 443/4/5 439/4/5
f 455/4/5 447/4/5 443/4/5
f 455/4/5 451/4/5 447/4/5
f 456/4/5 452/4/5 455/4/5
f 457/4/5 454/4/5 453/4/5
f 458/4/5 450/4/5 454/4/5
f 458/4/5 454/4/5 457/4/5
f 458/4/5 442/4/5 446/4/5
f 458/4/5 446/4/5 450/4/5
f 461/2/5 460/2/5 459/2/5
f 462/2/5 460/2/5 461/2/5
f 465/2/5 464/2/5 463/2/5
f 466/2/5 464/2/5 465/2/5
f 469/2/5 468/2/5 467/2/5
f 470/2/5 468/2/5 469/2/5
f 473/2/5 472/2/5 471/2/5
f 474/2/5 472/2/5 473/2/5
f 477/2/5 476/2/5 475/2/5
f 478/2/5 476/2/5 477/2/5
f 482/2/5 480/2/5 479/2/5
f 483/2/5 480/2/5 482/2/5
f 484/2/5 482/2/5 481/2/5
f 485/2/5 482/2/5 484/2/5
f 487/2/5 486/2/5 485/2/5
f 488/2/5 486/2/5 487/2/5
f 491/2/5 490/2/5 489/2/5
f 492/2/5 490/2/5 491/2/5
f 496/2/5 494/2/5 493/2/5
f 497/2/5 494/2/5 496/2/5
f 499/2/5 496/2/5 495/2/5
f 500/2/5 496/2/5 499/2/5
f 501/3/5 499/3/5 498/3/5
f 502/3/5 499/3/5 501/3/5
f 504/2/5 503/2/5 502/2/5
f 505/2/5 503/2/5 504/2/5
f 507/2/5 506/2/5 505/2/5
f 508/2/5 506/2/5 507/2/5
f 509/2/6 510/2/6 512/2/6
f 512/2/6 510/2/6 513/2/6
f 511/2/6 512/2/6 515/2/6
f 515/2/6 512/2/6 516/2/6
f 514/3/6 515/3/6 517/3/6
f 517/3/6 515/3/6 518/3/6
f 518/2/6 519/2/6 520/2/6
f 520/2/6 519/2/6 521/2/6
f 521/2/6 522/2/6 523/2/6
f 523/2/6 522/2/6 524/2/6
f 525/2/6 526/2/6 527/2/6
f 527/2/6 526/2/6 528/2/6
f 529/2/6 530/2/6 532/2/6
f 532/2/6 530/2/6 533/2/6
f 531/2/6 532/2/6 534/2/6
f 534/2/6 532/2/6 535/2/6
f 535/2/6 536/2/6 537/2/6
f 537/2/6 536/2/6 538/2/6
f 539/2/6 540/2/6 541/2/6
f 541/2/6 540/2/6 542/2/6
f 543/2/6 544/2/6 545/2/6
f 545/2/6 544/2/6 546/2/6
f 547/2/6 548/2/6 549/2/6
f 549/2/6 548/2/6 550/2/6
f 551/2/6 552/2/6 553/2/6
f 553/2/6 552/2/6 554/2/6
f 555/2/6 556/2/6 557/2/6
f 557/2/6 556/2/6 558/2/6
f 559/4/6 560/4/6 561/4/6
f 561/4/6 560/4/6 562/4/6
